<?xml version="1.0" encoding="UTF-8"?>
<svg id="_Слой_1" data-name="Слой 1" xmlns="http://www.w3.org/2000/svg" viewBox="0 0 89.35 123.63">
  <defs>
    <style>
      .cls-1 {
        fill: #522d21;
        stroke: #973f1c;
        stroke-miterlimit: 10;
        stroke-width: .75px;
      }

      .cls-2 {
        opacity: .98;
      }

      .cls-3 {
        fill: #f6a43c;
      }

      .cls-3, .cls-4 {
        stroke-width: 0px;
      }

      .cls-4 {
        fill: #973f1c;
      }
    </style>
  </defs>
  <g class="cls-2">
    <path class="cls-3" d="m87.34,23.55c-.4.09-.82.15-1.28.15-3.33,0-5.08-2.69-5.26-5.54-.74.47-1.63.76-2.69.76-2.64,0-4.28-1.69-4.95-3.81-.83.73-1.93,1.19-3.29,1.19-5.86,0-6.83-8.34-2.96-11.16-4.82-2.04-8.97-2.98-12.26-3.42-5.05-.66-7.58-1-10.98-1.21-5.3-.3-9.81-.19-13.17,0-1.61.05-3.94.29-6.58,1.21-1.34.47-3.44,1.35-6.58,3.62-2.82,2.04-6.92,5.01-9.88,9.67-1.27,1.99-3.44,5.33-4.39,15.71-.98,10.78-.67,15.53-1.09,26.58-.37,9.57-.74,9.74-1.09,20.54-.18,5.42-.36,11.39,0,18.12.46,8.54.69,12.81,2.24,15.64,3.65,6.67,10.6,9.28,12.97,10.17,3.22,1.21,5.21,1.3,20.98,1.44,10.13.09,12.58.09,16.09,0,4.72-.12,15.21-.5,21.72-5.06.33-.23.62-.45.62-.45,5.14-3.98,7.68-9.67,7.68-9.67,1.56-3.48,1.96-6.49,2.2-8.46.38-3.15,1.22-9.98-2.2-16.92-2.25-4.57-5.38-7.2-6.78-8.25-6.53-4.92-14.07-4.69-14.07-5.04.04-.36,8.23,2.31,15.87-1.92,2.02-1.11,3.35-2.36,3.77-2.77,5.08-4.92,5.8-12.03,6.69-20.69-.45-6.82-.89-13.64-1.34-20.46Zm-28.62,75.1c-.84,1.16-1.91,1.68-2.45,1.9-1.65.65-2.04-.1-3.31.45-1.93.82-1.84,2.94-3.25,3.18-1.34.22-1.64-1.64-3.66-2.14-2-.48-2.54,1.15-5.03.79-1.59-.23-1.61-.93-3.33-1.06-1.77-.14-2.47.52-3.28,0-.56-.36-1.12-1.27-1.09-3.62-.33-.06-1.32-.27-2.19-1.21-.23-.27-.92-1.09-1.09-2.42-.1-.3-.35-1.28,0-2.42.34-1.14,1.06-1.73,1.3-1.91-1.62-2.72-1.62-3.73-1.3-4.13.75-1,3.48,1.32,6.56,0,1.01-.43,1.01-.81,2.19-1.21.48-.17,2.35-.74,4.37,0,1.87.68,1.57,1.64,3.28,2.42,2.73,1.23,4.95-.62,5.96.75.74.98.14,2.72.6,2.88.36.12.64-1.14,1.71-1.57.83-.34,1.85-.07,2.49.52.71.66.87,1.62,1.02,2.44.21,1.2-.08,1.49.25,2.24.4.91.99.82,1.19,1.55.27.97-.51,2.03-.93,2.6Zm5.47-54.33c-1.68,3.06-6.71,1.23-8.62,4.12-.43.64-.63,1.44-1.13,2.01-1.09,1.28-2.9.92-3.85.83-5.41-.42-6.22,2.71-10.64,1.73-2.7-.59-2.55-1.8-5.48-2.16-2.47-.31-3.44.24-5.03-.53-1.56-.76-2.78-2.75-2.19-4.52.49-1.46,2.63-.93,3.19-2.51.25-.75-.15-1.04-.34-3.56-.1-1.34-.14-2.02,0-2.42.81-2.18,4.74-1.96,4.77-2.77.02-.76-3.56-.97-3.67-2.07-.08-.88,2.09-2.33,4.37-2.42,2.7-.1,3.31,1.78,5.47,1.21.51-.13,1.55-.81,3.63-2.16,1.67-1.1,1.75-1.16,2.18-1.28,2.12-.56,4.11,1.7,4.54,4.07.09.53.14,1.1.4,1.56.69,1.16,2.36.91,3.37.07.73-.62,1.64-1.51,2.43-.98,1.01.68.23,2.61,1.02,3.56.31.37.78.5,1.17.76,1.92,1.31,1.3,5.4,3.47,6.1.43.14.99.19,1.1.68.05.23-.03.47-.15.68Z"/>
    <g>
      <path class="cls-4" d="m87.46,23.24c-3.46.68-5.67-2.11-5.94-5.27-.03-.35-1.02-.02-1.15.06-2.79,1.62-5.59-.46-6.49-3.11-.13-.37-1.1-.01-1.29.14-2.82,2.3-6.21-.04-7.02-3.01-.64-2.36-.13-5.31,1.9-6.86.15-.11.24-.27.03-.36-5.93-2.48-11.99-3.46-18.33-4.2C43.18-.06,37.15-.13,31.13.16c-5.52.27-10.13,2.08-14.57,5.29-4.04,2.93-7.72,6.18-10.33,10.49-2.06,3.42-2.92,7.41-3.47,11.31-.87,6.21-1.09,12.52-1.22,18.78s-.24,11.97-.62,17.94c-.32,4.95-.64,9.89-.79,14.86-.23,7.13-.18,14.21.25,21.32.26,4.41.29,9.17,2.81,12.97,3.55,5.35,10.25,9.28,16.67,9.98,4.09.44,8.26.36,12.37.41,5.48.06,10.96.14,16.44.11,8.73-.04,18.61-.14,26.19-5.02,3.8-2.45,6.91-6.31,8.89-10.36s2.64-9,2.72-13.54c.12-6.49-1.92-12.89-6.32-17.73-3.51-3.86-8.27-6.22-13.36-7.24-.83-.16-1.66-.3-2.49-.41-.31-.04-.63-.12-.94-.12-.36,0-.21-.1-.3.05l-.46.32c-.66.29-.62.04-.18.15.19.05.4.06.6.09.67.1,1.34.19,2.01.26,1.8.18,3.62.2,5.42.01,4.27-.44,8.42-2.06,11.65-4.93,2.78-2.47,4.49-5.79,5.46-9.34.56-2.03.9-4.12,1.18-6.21.31-2.3.72-4.68.57-7-.42-6.41-.84-12.83-1.26-19.24-.02-.33-1.48-.06-1.45.39.29,4.38.57,8.77.86,13.15.14,2.19.34,4.38.43,6.58.08,1.97-.28,4.02-.53,5.97-.78,6.09-2.25,12.48-7.37,16.42-3.25,2.51-7.2,3.66-11.27,3.69-1.37,0-2.74-.11-4.1-.3-.6-.08-1.24-.26-1.86-.24-.3.01-1.34.19-1.11.64.12.24,1.07.24,1.28.27,2.62.34,5.19.89,7.65,1.88,6.32,2.54,11.11,7.88,13.19,14.36,1.89,5.89,1.6,12.85-.13,18.77-1.46,5.01-4.73,9.77-8.92,12.88-5.19,3.85-12.21,4.67-18.48,4.99-3.84.19-7.7.18-11.54.16-6.74-.04-13.49-.01-20.22-.27-2.55-.1-5.09-.23-7.51-1.09-4.62-1.66-9.03-4.26-11.96-8.3-3.24-4.47-3.03-10.38-3.32-15.66-.44-7.98-.3-15.94.05-23.92.23-5.26.7-10.5.91-15.76.29-6.99.23-13.99.64-20.97.37-6.32.63-13.19,3.22-19.08,2.1-4.77,5.96-8.51,10.09-11.57,2.33-1.73,4.74-3.41,7.49-4.39,3.38-1.19,7-1.22,10.55-1.28,7.02-.13,14.06.44,20.98,1.59,3.68.61,7.25,1.74,10.69,3.18l.03-.36c-2.56,1.96-3.19,5.85-1.71,8.67,1.76,3.35,6.28,3.69,9.08,1.41l-1.29.14c1.28,3.78,5.42,4.95,8.79,3l-1.15.06c.33,3.86,3.29,6.27,7.14,5.51.61-.12,1.26-.82.25-.62Z"/>
      <path class="cls-4" d="m58.06,98.68c-.53.68-1.21,1.37-2.05,1.66-.73.25-1.4.06-2.13.14-1.06.12-2.11.64-2.8,1.46-.36.43-.6.94-.92,1.4-.41.6-.57.47-1.09.02-.96-.83-1.67-1.61-3.03-1.73-1.09-.1-1.94.35-2.94.69-1.72.59-2.71-.46-4.26-.79-.65-.14-1.34-.15-2-.09-.57.05-1.29.34-1.81.02-1.03-.63-.99-2.52-.99-3.52-.03-.06-.07-.1-.14-.11-3.12-.62-4.64-5.53-2-7.59.04-.03.21-.16.16-.25-.66-1.14-1.47-2.41-1.44-3.76,0-.27.25-.14-.14-.09.23-.03.59.13.81.19.69.18,1.39.36,2.1.43,1.45.15,2.97-.13,4.22-.89,1.74-1.04,3.64-1.56,5.58-.44.59.34.95.87,1.43,1.33.61.58,1.4.94,2.22,1.13.69.15,1.4.17,2.11.12s1.79-.43,2.42-.06c1.23.72.07,2.54.94,3.2.77.58,1.61-.54,2.01-.98,1.19-1.3,2.52-.07,2.91,1.18.26.84.27,1.66.33,2.52.05.81.39,1.16.89,1.74.9,1.05.35,2.06-.39,3.08-.31.43,1.1.25,1.32-.06.44-.6.93-1.26,1.02-2.03s-.22-1.04-.69-1.58c-1.09-1.25-.54-2.88-1.14-4.37-.52-1.28-1.75-1.92-3.1-1.79-.57.05-1.15.24-1.63.56-.56.37-.79,1.07-1.3,1.41l.87-.28c.26,0,.13-1.18.11-1.44-.05-.63-.22-1.31-.78-1.68-.86-.58-2.17-.18-3.1-.09-1.11.1-2.24-.07-3.18-.71-.58-.4-.95-1.01-1.5-1.45-1.21-.95-2.95-1.14-4.43-.99-1.12.11-2.29.43-3.24,1.04s-1.78.98-2.95.87c-.76-.07-1.48-.31-2.22-.48-1.36-.32-3.25-.08-2.88,1.72.12.59.4,1.16.67,1.7.09.18.17.36.28.53-.1-.17.51.75.52.63,0,.08-.49.45-.53.51-.91,1.04-1.15,2.42-.9,3.75s.72,2.47,1.79,3.25c.25.18.52.33.8.45.13.06.69.15.76.25.13.16.03.94.05,1.16.04.4.11.81.24,1.2.26.76.74,1.38,1.57,1.5.51.08,1.02-.06,1.52-.13,1.03-.14,1.94-.03,2.87.42,1.1.54,2.25.77,3.47.56,1.57-.27,2.66-1.35,4.24-.3.95.63,1.47,1.75,2.75,1.69,1.07-.05,1.82-.63,2.37-1.5.51-.8.99-1.79,2.05-1.89.62-.06,1.21.06,1.84-.07,1.53-.32,2.87-1.21,3.83-2.43.32-.41-1.08-.24-1.32.06Z"/>
      <path class="cls-4" d="m63.47,44.44c-1.08,1.79-3.47,1.61-5.27,2.06-1.46.37-2.79,1.04-3.55,2.39-.41.73-.56,1.4-1.32,1.87-.61.38-1.14.31-1.82.25-1.02-.09-2.03-.13-3.04,0-1.6.21-3.01.85-4.5,1.42-1.93.74-3.93.43-5.68-.65-1.62-.99-3.2-1.35-5.11-1.37-.96,0-1.93.11-2.85-.27-1.14-.47-2.04-1.51-2.37-2.7-.15-.54-.21-1.23.02-1.76.25-.59.69-.71,1.24-.93.67-.27,1.38-.57,1.77-1.22.63-1.05-.04-2.67-.14-3.78-.07-.77-.28-1.8-.03-2.56.34-1.02,1.47-1.35,2.39-1.61.5-.14,2.51-.44,2.37-1.28-.14-.89-2.59-1.05-3.22-1.48-.94-.64.02-1.4.71-1.8,1.28-.74,2.79-.8,4.13-.22,1.46.63,2.59,1.22,4.2.65s3.08-1.8,4.49-2.72c.68-.45,1.05-.8,1.9-.52,1.24.41,2.13,1.68,2.57,2.84.38,1,.22,2.39,1.12,3.11.62.5,1.54.48,2.28.32.41-.08.8-.22,1.17-.41.51-.25.87-.73,1.36-.98,1.36-.69,1.08,1.37,1.21,2.21.18,1.25,1.06,1.3,1.87,2.07.73.69.97,1.77,1.24,2.7.22.78.41,1.63.88,2.31.23.33.48.58.84.77.62.33,1.58.27,1.13,1.3-.13.31,1.26.17,1.44-.23.47-1.08-.26-1.2-1.08-1.54-1-.42-1.33-1.48-1.61-2.44-.26-.88-.44-1.81-.9-2.62-.54-.95-1.86-1.2-2.24-2.15-.56-1.38.24-3.79-2.17-3.34-1.09.21-1.63,1.05-2.55,1.53-2.22,1.16-2.14-2.15-2.67-3.34-.84-1.88-2.58-3.26-4.71-2.8-1.47.32-2.76,1.48-3.99,2.27-.73.47-1.67,1.35-2.62,1.24-.99-.12-1.84-.88-2.8-1.12-1.97-.51-4.4.08-6.03,1.28-1.27.93-1.35,1.88.15,2.48.56.23,1.81.33,2.23.78.52.56-.84.59-1.32.73-1.33.4-3.04,1.08-3.28,2.63-.15.99.05,2.16.17,3.13.08.67.4,1.51.31,2.2-.15,1.11-1.31,1.18-2.12,1.62s-1.21,1.01-1.28,1.91c-.18,2.14,1.68,4.01,3.7,4.35.94.16,1.92.03,2.87.08,1.36.06,2.5.32,3.66,1.02,1.67,1,3.43,1.6,5.41,1.38s3.63-1.37,5.55-1.76c2.24-.45,4.7.59,6.77-.69,1.19-.74,1.3-2.11,2.21-3.07.84-.89,2.12-1.02,3.27-1.21,1.93-.33,3.98-.76,5.07-2.55.15-.24-1.2-.15-1.44.23Z"/>
    </g>
  </g>
  <ellipse class="cls-1" cx="10.07" cy="78.51" rx="2.71" ry="2.96" transform="translate(-10.37 2.04) rotate(-7.65)"/>
  <ellipse class="cls-1" cx="15.05" cy="70.51" rx="2.28" ry="2.49"/>
  <ellipse class="cls-1" cx="17.33" cy="78.73" rx="1.69" ry="1.85"/>
</svg>