<?xml version="1.0" encoding="UTF-8"?>
<svg id="_Слой_1" data-name="Слой 1" xmlns="http://www.w3.org/2000/svg" viewBox="0 0 124.09 173.16">
  <defs>
    <style>
      .cls-1 {
        stroke: #1d1d1b;
        stroke-width: .75px;
      }

      .cls-1, .cls-2, .cls-3, .cls-4 {
        stroke-miterlimit: 10;
      }

      .cls-1, .cls-5 {
        fill: #fff;
      }

      .cls-2 {
        fill: #522d21;
      }

      .cls-2, .cls-3, .cls-4 {
        stroke: #973f1c;
      }

      .cls-3 {
        fill: #f6a249;
      }

      .cls-5, .cls-6 {
        stroke-width: 0px;
      }

      .cls-4 {
        fill: #512d21;
      }

      .cls-6 {
        fill: #1d1d1b;
      }
    </style>
  </defs>
  <g>
    <g>
      <path class="cls-3" d="m121.38,135.46c-3.42-3.94-10.21-3.67-12.82-3.56-3.88.15-7.29,1.35-7.93,1.59-2.75.99-3.57,1.8-6.65,2.92,0,0-2.93,1.06-6.89,1.72-8.43,1.39-17.64-.62-19.75-1.1-1.26-.19-12.56-2.15-18.21-11.46-1.27-2.09-2.09-4.75-2.09-4.75-1.18-3.38-1.56-6.35-1.68-8.42-.37-3-.43-6.89.62-11.26.76-3.18,2.02-8.81,7.03-13.23,3.41-3,7.14-4.37,9.36-5,7.97-2.28,14.72-1.8,21.44-.93,3.74.49,9.04,1.45,15.25,3.58,10.43,4.37,20.37,1.95,23.39-3.53,3.1-5.65-1.66-13.65-2.51-15.08-.81-1.36-3.01-6.32-10.57-9.54-5.55-2.36-14.53-5.47-25.91-6.43-12.12-1.02-21.77.86-27.54,2.41-5.71,2-14.7,5.94-23.19,13.57-9.9,8.89-14.36,18.51-16.4,24.01-1.79,4.75-3.81,11.96-3.72,20.99.07,7.64,1.62,14.06,3.13,18.65.94-.15,7.8-1.16,14.05,3.3,6.38,4.57,6.85,11.09,6.89,11.94,2.53-2.93,6.94-3.58,10.06-1.85,3.46,1.92,3.69,5.84,3.7,6.05,5.26-3.77,12.2-3.85,15.95-1.04,4.75,3.57,5.54,12.64-1.74,18.15,4.96,1.27,17.88,3.95,32.51-.41,12.16-3.62,19.45-10.32,22.68-13.71,4.45-6.38,4.92-13.7,1.54-17.59Z"/>
      <g>
        <ellipse class="cls-3" cx="10" cy="156.35" rx="4.52" ry="5.12" transform="translate(-143.08 123.03) rotate(-74.06)"/>
        <ellipse class="cls-3" cx="24.93" cy="149.17" rx="6.7" ry="7.6" transform="translate(-125.35 132.19) rotate(-74.06)"/>
        <ellipse class="cls-3" cx="43.62" cy="163.79" rx="8.78" ry="9.95" transform="translate(-125.85 160.76) rotate(-74.06)"/>
      </g>
      <g>
        <ellipse class="cls-4" cx="29.11" cy="109.62" rx="2.97" ry="3.22"/>
        <ellipse class="cls-4" cx="32.09" cy="117.73" rx="2.05" ry="1.93"/>
      </g>
      <ellipse class="cls-4" cx="95.27" cy="153.29" rx="2.98" ry="2.95"/>
    </g>
    <g>
      <ellipse class="cls-2" cx="87.6" cy="60.66" rx="1.72" ry="1.7"/>
      <ellipse class="cls-2" cx="80.55" cy="68.4" rx="3.46" ry="3.43"/>
      <ellipse class="cls-2" cx="91.05" cy="70.59" rx="1.25" ry="1.23"/>
    </g>
  </g>
  <g>
    <path class="cls-1" d="m20.46,52.25c-.8-1.82-1.86-2.95-2.55-3.57-1.16-1.04-2.29-1.56-3.15-1.96-1.16-.54-1.72-.62-4-1.36-1.33-.43-2.4-.81-3.06-1.05-1.18-.76-4.9-3.4-6.56-8.48-1.25-3.83-.69-7.12-.34-8.6.29-.85,1.48-3.98,4.85-5.96,3.9-2.28,7.79-1.3,8.51-1.11-.25-1.98-.26-4.58.6-7.4.48-1.56,1.07-3.51,2.81-5.28,1.54-1.56,3.16-2.16,4.94-2.81,1.27-.47,4.07-1.46,7.74-1.11.52.05,2.73.29,5.36,1.45,1.45.64,2.59,1.36,3.4,1.96.72-1.09,2.5-3.5,5.79-5.11,3.28-1.61,6.27-1.55,7.57-1.45,1.45.16,4.57.73,7.32,3.15,1.77,1.55,2.6,3.18,3.49,4.94,1.11,2.19,2.57,5.05,2.13,8.68-.23,1.86-.88,3.3-1.36,4.17-.6,1.02-1.77,3.36-1.79,6.55,0,2,.48,3.48,1.62,6.38,1.16,2.96,2.17,4.5,3.66,7.23,1.06,1.95,2.53,4.8,4.09,8.43-5.29.25-13.96,1.32-23.6,5.74-9.98,4.58-16.59,10.75-20.23,14.69-1.42-2.93-2.83-6.11-4.17-9.53-1.01-2.57-1.89-5.06-2.67-7.45-.13-.38-.26-.76-.39-1.15Z"/>
    <path class="cls-1" d="m20.67,52.86c3.87-3.65,9.95-8.55,18.43-12.44,9.96-4.58,18.97-5.8,24.68-6.13"/>
    <g>
      <path class="cls-5" d="m32.2,24.1c2.25,4.01,4.49,8.02,6.74,12.03"/>
      <path class="cls-6" d="m31.83,24.2c2.25,4.01,4.49,8.02,6.74,12.03.14.25.84,0,.72-.19-2.25-4.01-4.49-8.02-6.74-12.03-.14-.25-.84,0-.72.19h0Z"/>
    </g>
    <g>
      <path class="cls-5" d="m48.22,19.82c.18,2.02.48,4.3.95,6.75.4,2.06.86,3.92,1.33,5.57"/>
      <path class="cls-6" d="m47.86,19.92c.38,4.17,1.14,8.3,2.29,12.33.07.26.8.06.72-.19-1.15-4.03-1.91-8.16-2.29-12.33-.02-.24-.75-.09-.72.19h0Z"/>
    </g>
    <g>
      <path class="cls-5" d="m18.81,33.03c1.52.95,3.22,2.17,4.96,3.71,2,1.77,3.54,3.52,4.7,5.05"/>
      <path class="cls-6" d="m18.52,33.21c3.68,2.32,6.95,5.27,9.61,8.72.15.2.85-.05.67-.29-2.68-3.49-5.99-6.44-9.7-8.79-.2-.13-.87.17-.58.35h0Z"/>
    </g>
  </g>
</svg>