<?xml version="1.0" encoding="UTF-8"?>
<svg id="_Слой_1" data-name="Слой 1" xmlns="http://www.w3.org/2000/svg" viewBox="0 0 109.59 123.8">
  <defs>
    <style>
      .cls-1 {
        fill: #522d21;
      }

      .cls-1, .cls-2, .cls-3 {
        stroke: #973f1c;
        stroke-miterlimit: 10;
      }

      .cls-1, .cls-3 {
        stroke-width: .75px;
      }

      .cls-2, .cls-3 {
        fill: #f6a43c;
      }
    </style>
  </defs>
  <path class="cls-2" d="m26.73,1.04c-2.52,1.04-6.17,2.91-9.61,6.29-4.08,4-6.1,8.37-8.01,13.58-4.73,12.92-6.27,24.23-6.88,29.41C.74,62.83,0,69.09.87,77.72c1.03,10.19,2.26,22.41,11.48,32.36,5.5,5.93,11.56,8.6,14.65,9.93,4.48,1.92,10.08,3.49,28.57,3.27,30.21-.36,38.57-4.82,42.24-7.12,6.03-3.77,8.46-7.35,9.74-10.4.4-.95,3.51-8.74-.46-16.36-3.7-7.09-11.03-9.23-13.45-9.93-6.73-1.96-8.97.43-24.12.82-11.38.29-14-.95-15.13-1.55-7.51-4.02-10.14-12.65-10.57-14.06-1.24-4.06-1.14-7.5-1.07-10.31.08-2.91.22-6.72,2.14-11.07.97-2.21,2.11-3.89,2.98-5.02-.42.13-3.76,1.12-6.84-.99-2.73-1.87-3.27-4.8-3.35-5.31-3.86,1.15-8.01-.38-9.88-3.52-2.08-3.48-.87-8.15,2.94-10.47-1.11-.61-3.4-2.1-4.82-4.95-2.83-5.71.53-11.53.81-12Z"/>
  <ellipse class="cls-3" cx="40.75" cy="9.35" rx="6.28" ry="5.91"/>
  <ellipse class="cls-3" cx="37.02" cy="23.28" rx="3.37" ry="4.26" transform="translate(-6.67 21.26) rotate(-29.52)"/>
  <ellipse class="cls-3" cx="49.5" cy="23.56" rx="3.62" ry="3.41"/>
  <ellipse class="cls-1" cx="57.33" cy="109.65" rx="4.22" ry="3.98"/>
  <ellipse class="cls-1" cx="68.66" cy="105.67" rx="4.14" ry="2.95"/>
  <ellipse class="cls-1" cx="61.85" cy="99.26" rx="2.54" ry="2.39"/>
</svg>