<?xml version="1.0" encoding="UTF-8"?>
<svg id="_Слой_1" data-name="Слой 1" xmlns="http://www.w3.org/2000/svg" viewBox="0 0 140.05 120.55">
  <defs>
    <style>
      .cls-1 {
        fill: #522d21;
        stroke: #973f1c;
      }

      .cls-1, .cls-2, .cls-3, .cls-4 {
        stroke-miterlimit: 10;
      }

      .cls-1, .cls-4 {
        stroke-width: .75px;
      }

      .cls-5 {
        fill: #983f1c;
      }

      .cls-5, .cls-6 {
        stroke-width: 0px;
      }

      .cls-2 {
        stroke-width: .5px;
      }

      .cls-2, .cls-6, .cls-3, .cls-4 {
        fill: #f6a53d;
      }

      .cls-2, .cls-3, .cls-4 {
        stroke: #983f1c;
      }
    </style>
  </defs>
  <g>
    <ellipse class="cls-3" cx="123.94" cy="16.43" rx="5.45" ry="5.19" transform="translate(53.95 120.02) rotate(-63.51)"/>
    <ellipse class="cls-4" cx="114.52" cy="4.26" rx="3.98" ry="3.89"/>
    <g>
      <path class="cls-6" d="m5.62,30.01c-.52-1.87-1.39-5.98-.06-10.86,1.34-4.93,4.18-7.94,5.63-9.38,3.62-3.6,7.45-5.16,11.26-6.7,3.89-1.58,6.4-2.6,9.85-2.68,6.43-.15,11.25,3.05,12.67,4.02,5.3,3.63,7.79,9.22,12.67,20.11,3.31,7.4,4.03,10.68,7.6,12.3,3.12,1.41,7.44,1.12,10.05-1.06,2.95-2.45,4.01-7.53,4.27-8.83,0-.01,0,.01,0,0,.97-4.87,6.3-15.95,15.95-17.43,1.21-.19,3.2-.33,5.76.27-.32.49-1.15,1.9-1.04,3.83.12,2.09,1.27,3.45,1.63,3.87,2.27,2.61,6.28,2.99,9,1.85.41-.17.74-.36.97-.5-.16.55-.36,1.38-.47,2.4-.23,2.04-.68,6.12,1.92,8.68,2.52,2.48,6.3,1.96,6.93,1.88,2.42-.33,4.09-1.55,4.83-2.17-.27.3-.62.77-.87,1.41-.61,1.53-.43,3.39.47,4.75,1.5,2.28,4.74,2.7,7,1.74,1.45-.62,2.29-1.73,2.67-2.33-.32,6.21-.67,11.29-.93,14.81-.66,8.85-1.12,12.46-1.32,19.23-.17,5.83.05,6.97,0,11.57-.21,17.41-.31,26.11-5.9,31.42-5.37,5.1-13.28,5-19.33,4.92-4.67-.06-10.45-.16-14.95-4.17-3.66-3.26-4.57-7.54-5.52-11.85-2.36-10.79,1.43-14.75-1.19-25.54-.7-2.88-2.4-9.89-5.88-10.38-3.05-.43-4.33,4.6-10.42,6.37-.75.22-5.03,1.45-9.29-.34-5.05-2.12-6.12-6.79-8.96-6.38-2.01.29-3.17,2.88-3.49,3.6-1.94,4.34.34,8.29,2.34,15.24,1.84,6.39,2.93,11.48,2.46,17.44-.47,5.87-3.23,11.9-8.51,14.95-2.55,1.48-4.62,2.07-8.41,2.84-5.34,1.1-11.42,2.34-17.02-.14-5.53-2.45-8-7.37-11.3-13.95-2.13-4.25-5.03-11.38-5.94-21.1,4.17-.46,7.8-2.93,9.38-6.56,2.1-4.81.3-10.93-4.58-14.32,5.99,1.06,11.67-3.19,12.41-9.09.72-5.72-3.46-11.15-9.32-11.86.39-.16,3.46-1.47,3.99-4.13.6-2.98-2.14-6.87-6.99-7.74Z"/>
      <path class="cls-5" d="m6.34,29.81c-1.5-5.49-.73-11.47,2.39-16.27s7.55-7.57,12.56-9.66c2.78-1.16,5.63-2.49,8.63-2.96s6.2-.04,9.09,1.01c3.5,1.27,6.72,3.37,9.12,6.23,3.31,3.94,5.35,8.91,7.45,13.55,1.29,2.85,2.52,5.73,3.77,8.6.75,1.72,1.52,3.53,2.77,4.95,2.8,3.18,8.03,3.42,11.7,1.8,3.95-1.74,5.58-6.06,6.42-10.01s2.79-7.81,5.37-10.98c1.68-2.07,3.72-3.91,6.12-5.08,2.89-1.42,5.99-1.57,9.1-.89l-.21-.33c-1.88,2.95-1.2,6.81,1.61,8.9s7.05,2.06,10.04.3l-1.16-.06c-1.18,4.3-1.28,10.45,3.49,12.57,3.57,1.58,8.08.59,11.02-1.82l-1.24-.06c-2.42,2.88-1.21,7.32,2.42,8.42,3.01.91,6.44-.25,8.17-2.88l-1.39.12c-.31,6.08-.71,12.15-1.2,18.22-.4,5.05-.87,10.1-1.04,15.17-.36,10.7.62,21.55-.91,32.19-.5,3.46-1.38,7.01-3.56,9.82-3.43,4.42-8.98,5.78-14.32,6.04-2.59.12-5.21.09-7.8,0-2.82-.1-5.67-.45-8.29-1.55-3.04-1.28-5.54-3.59-7.03-6.53-1.29-2.55-1.9-5.41-2.46-8.18-.62-3.01-.82-6.07-.65-9.14.14-2.37.44-4.72.51-7.09.14-4.96-.84-10.22-2.8-14.8-.69-1.6-1.66-3.53-3.33-4.3-1.35-.62-2.88-.27-4.06.55-1.5,1.04-2.64,2.53-4.1,3.64-1.96,1.49-4.28,2.3-6.73,2.46-3.24.22-6.38-.75-8.83-2.89-1.42-1.24-2.51-3.08-4.16-4.02-3.57-2.04-6.57,2.77-7.06,5.72-.4,2.4.28,4.81.99,7.08.99,3.14,2.03,6.25,2.86,9.44,1.57,6.06,2.52,12.63.71,18.75-1.68,5.68-5.66,10.08-11.4,11.78-2.99.89-6.14,1.48-9.23,1.9-3.6.49-7.32.47-10.73-.92-5.22-2.13-8.02-7.01-10.46-11.8-2.27-4.45-4.19-8.97-5.42-13.82-.79-3.12-1.32-6.29-1.63-9.49l-.84.54c4.83-.6,9.48-3.63,10.75-8.55s-1.11-10.05-5.15-12.94l-1.13.62c5.89.94,12.16-2.67,13.44-8.69s-3.26-12.11-9.44-12.96l-.18.59c2.4-1,4.8-3.05,4.49-5.9-.4-3.65-4.02-5.91-7.31-6.56-.39-.08-1.69.55-.91.7,2.97.59,6.03,2.6,6.69,5.74.53,2.53-1.27,4.6-3.51,5.53-.26.11-.74.51-.18.59,5.33.74,9.42,5.56,9.11,10.98-.34,5.76-5.54,10.19-11.29,9.27-.18-.03-1.53.33-1.13.62,3.58,2.56,5.89,6.88,5.31,11.35-.63,4.83-4.57,8.34-9.32,8.93-.23.03-.87.2-.84.54.59,6.09,2.01,12.08,4.38,17.72.95,2.27,2.07,4.46,3.21,6.64,1.21,2.32,2.52,4.64,4.23,6.64,3.86,4.51,9.55,6.01,15.32,5.57,3.11-.24,6.18-.88,9.22-1.55,2.5-.55,4.93-1.28,7.17-2.53,4.79-2.68,7.74-7.57,8.76-12.88,1.26-6.56-.18-13.26-1.97-19.56-.87-3.04-2.05-6-2.78-9.08-.56-2.33-.61-4.62.43-6.82.43-.92,1.01-1.98,1.87-2.56,1.05-.71,1.96.02,2.73.76,1.65,1.58,2.98,3.37,4.99,4.55,4.19,2.47,9.87,2.18,14.12-.05,1.9-1,3.37-2.46,4.91-3.92.49-.47,1.15-1.2,1.86-1.32.98-.16,1.92.71,2.5,1.4,1.5,1.77,2.25,4.2,2.88,6.4.73,2.58,1.31,5.22,1.51,7.89.4,5.27-.85,10.5-.37,15.78.28,3.08.95,6.23,1.9,9.18s2.37,5.4,4.66,7.32c4.31,3.62,9.96,3.93,15.34,3.99s10.71-.04,15.56-2.31c3.64-1.7,6.44-4.57,7.93-8.29s1.89-8.25,2.11-12.41c.31-5.8.42-11.65.32-17.46-.18-10.72.96-21.33,1.67-32.02.22-3.31.42-6.62.59-9.94.03-.53-1.22-.13-1.39.12-1.57,2.38-4.59,3.22-7.05,1.58s-2.67-5.05-.88-7.18c.4-.47-1.04-.22-1.24-.06-2.76,2.27-7.19,2.87-10.1.47-3.17-2.6-2.81-7.71-1.82-11.28.13-.47-1.01-.14-1.16-.06-5.57,3.29-13.24-2.95-9.45-8.91.13-.21-.01-.29-.21-.33-4.83-1.07-9.69,0-13.65,2.98-3.49,2.62-6.09,6.39-7.83,10.36-1.42,3.25-1.67,6.86-3.32,10.02-1.5,2.87-3.96,4.57-7.27,4.54-2.31-.02-4.65-.82-6.2-2.58-1.44-1.63-2.25-3.8-3.09-5.77-1.32-3.09-2.68-6.16-4.07-9.22-2.01-4.41-4.06-9.08-7.35-12.71-2.58-2.85-6.12-4.94-9.78-6.07-2.68-.83-5.51-1.13-8.3-.82s-5.59,1.42-8.26,2.5c-5.66,2.29-11.04,5.05-14.68,10.13s-4.67,11.47-3.05,17.42c.12.42,1.57.04,1.45-.39Z"/>
    </g>
    <ellipse class="cls-4" cx="135.19" cy="8.15" rx="3.08" ry="3.08"/>
    <ellipse class="cls-2" cx="138.2" cy="17.91" rx="1.6" ry="1.6"/>
  </g>
  <ellipse class="cls-1" cx="17.02" cy="97.85" rx="2.75" ry="2.77"/>
  <ellipse class="cls-1" cx="28.68" cy="103.29" rx="4.59" ry="4.62"/>
</svg>