<?xml version="1.0" encoding="UTF-8"?>
<svg id="_Слой_1" data-name="Слой 1" xmlns="http://www.w3.org/2000/svg" viewBox="0 0 123.22 119.32">
  <defs>
    <style>
      .cls-1 {
        fill: #f5a248;
      }

      .cls-1, .cls-2 {
        stroke: #973f1c;
      }

      .cls-1, .cls-2, .cls-3 {
        stroke-miterlimit: 10;
      }

      .cls-2 {
        fill: #512d21;
        stroke-width: .75px;
      }

      .cls-3 {
        fill: #f6a53d;
        stroke: #983f1c;
      }
    </style>
  </defs>
  <g>
    <g>
      <path class="cls-1" d="m113.94,75.56c-2.55-3.57-5.07-5.79-7.49-7.94-2.43-2.16-4.73-3.87-6.7-5.18,1.4-1.33,6.42-6.42,7.55-14.99,1.1-8.35-2.22-14.56-3.21-16.28-1.53,3.5-4.96,5.56-8.35,5.12-3.97-.52-7.14-4.37-7.04-8.96-2.85.76-5.8-.11-7.62-2.27-1.87-2.23-1.79-4.95-1.75-5.57-4.09.96-7.72-1.89-8.08-5.19-.27-2.47,1.3-5.13,3.91-6.38-3.61-1.88-8.79-4.12-15.29-5.44-3.05-.62-7.86-1.55-14.2-1.04-7.87.63-13.52,3.13-16.32,4.39-2.73,1.23-6.05,2.75-9.78,5.85-3.61,2.98-5.79,5.93-7.23,7.91-1.28,1.76-4.16,5.8-6.47,11.8-2.32,6.07-3.26,11.38-3.91,16.66-.91,7.31-2.44,19.5-.63,35.75.63,5.71,1.82,13.26,4.2,21.97.52,1.33,3.72,9.18,11.76,12.06,7.66,2.74,16.61-.14,22.33-7.36,1.67-2.53,3.88-6.46,5.38-11.69,1.49-5.24,1.7-9.8,1.62-12.9,2.04,1.22,6.81,3.65,13.19,3.4,4.98-.19,8.74-1.92,10.74-3.05,1.72,3.61,4.52,8.4,8.96,13.1,1.87,1.97,4.43,4.35,7.77,6.65.29-1.16,1.19-4.14,3.9-6.46,1.55-1.33,3.13-1.94,4.15-2.24,0-.3,0-3.71,2.77-5.79,2.66-2,5.6-1.05,5.91-.95-.3-.84-.73-2.43-.4-4.3.69-3.86,4.08-5.74,5.04-6.27,3.21-1.78,6.35-1.27,7.42-1.04-.47-.83-1.18-2.02-2.15-3.38Zm-35.14-20.94c-.99,1.54-2.43,2.2-3.2,2.54-3.07,1.4-4.93.08-6.56,1.73-.99.99-.71,1.85-1.61,2.22-1.38.54-2.54-1.22-4.22-.76-.88.24-1.17.88-1.89,1.62-2.63,2.75-6.76,2.7-7.03,2.69-3.54-.09-3.52-2.82-7.27-3.18-3.11-.3-4.37,1.46-6.82.55-1.74-.64-2.84-2.17-3.48-3.35-1.97-2.36-2.17-4.01-1.95-5.08.54-2.76,3.94-2.76,5.58-6.46,1.16-2.6.23-4.29,1.55-5.39,1.36-1.14,3.7-.44,5.43.31,1.33,1.07,3.19,2.23,4.76,1.61.6-.24.8-.67,1.5-1.3.81-.71,2.07-1.52,4.07-1.95.9.17,2.2.43,3.74.79,2.04.48,3.06.72,3.68,1.01,2.37,1.17,2.31,2.58,4.06,2.86,1.05.18,2.56-.07,3.52-1.03.72-.73.75-1.23,1.53-1.89.61-.52,1.6-.72,2.15-.11.31.34.41.77.44.95.33,2.12,2.08,3.13,2.79,5.52.55,1.86.41,4.28-.76,6.09Z"/>
      <path class="cls-1" d="m89.57,107.83c.16-.57,1.12-3.81,4.19-5.31,1.47-.72,2.85-.75,3.64-.7.16-1.16.66-3.42,2.44-5.12.91-.87,1.86-1.3,2.63-1.65,1.83-.83,3.47-1.05,4.54-1.11-.01-.98.09-2.77.95-4.75,1.05-2.4,2.61-3.71,2.95-3.98,3.42-2.77,7.61-1.97,8.35-1.82.85.82,2.45,2.6,3.12,5.33.2.83.74,2.93-.22,6.12-1.67,5.57-6.65,14.78-16.21,17.94-2.43.8-5.65,1.83-9.44.55-3.86-1.29-6.08-4.22-6.94-5.49Z"/>
    </g>
    <ellipse class="cls-2" cx="18.66" cy="102.17" rx="3.9" ry="4.1"/>
    <ellipse class="cls-2" cx="18.52" cy="91.19" rx="1.77" ry="1.86"/>
    <ellipse class="cls-2" cx="28.58" cy="99.15" rx="1.91" ry="2"/>
  </g>
  <ellipse class="cls-3" cx="97.77" cy="23.16" rx="5.45" ry="5.19" transform="translate(33.43 100.33) rotate(-63.51)"/>
  <circle class="cls-3" cx="98.44" cy="10.98" r="3.39"/>
  <circle class="cls-3" cx="83.55" cy="10.98" r="3.64"/>
  <circle class="cls-3" cx="94.08" cy="2.35" r="1.85"/>
</svg>