<?xml version="1.0" encoding="UTF-8"?>
<svg id="_Слой_1" data-name="Слой 1" xmlns="http://www.w3.org/2000/svg" viewBox="0 0 103.82 123.32">
  <defs>
    <style>
      .cls-1 {
        fill: #512d21;
      }

      .cls-1, .cls-2 {
        stroke: #973f1c;
        stroke-miterlimit: 10;
        stroke-width: .5px;
      }

      .cls-2, .cls-3 {
        fill: #f6a43c;
      }

      .cls-3, .cls-4 {
        stroke-width: 0px;
      }

      .cls-4 {
        fill: #973f1c;
      }
    </style>
  </defs>
  <g>
    <path class="cls-3" d="m10.04,15.21c.73-3.24,1.91-8.48,6.98-11.89,3.36-2.27,6.97-2.74,8.95-2.82,1.49-.06,6.15-.25,9.98,2.55,3.78,2.76,4.67,6.86,5.87,12.4.69,3.18.85,5.86.88,7.68-.77-.17-2.59-.48-4.73.15-2.39.71-3.75,2.17-4.23,2.74-.51-.35-3.23-2.14-6.98-1.64-3.36.45-6.25,2.56-7.54,5.47-.39-.32-1.56-1.19-3.39-1.34-2.47-.21-4.24,1.05-4.56,1.29-1.1-2.82-2.66-8.19-1.23-14.58Z"/>
    <path class="cls-4" d="m10.76,15.11c.67-2.97,1.53-5.9,3.36-8.39,2.5-3.39,6.42-5.35,10.57-5.77,3.07-.31,6.3.02,9.07,1.44,3.26,1.67,5.06,4.65,6.08,8.07,1.24,4.15,2.05,8.52,2.12,12.86l1.17-.57c-3.64-.79-7.64.41-10.08,3.26l1.35-.28c-5.3-3.6-13.17-1.65-15.92,4.2l1.4-.37c-2.65-2.11-6.53-1.81-9.2.12l1.3-.1c-1.78-4.64-2.27-9.61-1.23-14.49.11-.5-1.34-.27-1.44.2-1.06,4.93-.58,9.98,1.22,14.68.17.45,1.05.08,1.3-.1,2-1.45,4.79-1.29,6.7.23.37.29,1.21.03,1.4-.37,2.33-4.97,8.62-6.51,13.12-3.45.38.26,1.06.06,1.35-.28,1.94-2.27,4.94-3.14,7.84-2.52.35.07,1.18-.11,1.17-.57-.08-4.34-.88-8.7-2.12-12.86-1.09-3.64-3.05-6.73-6.55-8.45C28.31-1.53,19.16.04,14.17,5.11c-2.77,2.81-4.01,6.44-4.86,10.2-.11.5,1.34.27,1.44-.2Z"/>
  </g>
  <g>
    <path class="cls-3" d="m43.01,35.16c.39,8.58-.03,15.54-.5,20.36-.71,7.32-1.66,11-.9,17.46.74,6.29,1.47,12.56,6.35,15.11,4.28,2.23,10.73,1.11,14.7-1.99,4.68-3.66,5.07-11.4,5.65-26.74.69-18.01.69-19.98.69-19.98,0-5.3-.15-8.24,1.5-12.15.83-1.97,3.31-7.85,9.8-10.51,1.08-.44,6.16-2.39,10.67-.9,11.98,3.96,12.04,29.6,12.06,36.75,0,2.02-1.39,11.7-4.18,31.05-.91,6.33-1.49,10.11-3.73,14.94-1.42,3.07-5.22,11.02-14.01,16.8-7.86,5.18-15.48,5.83-26.05,6.74-12,1.03-20.59,1.77-28.95-3.09-7.65-4.44-11.03-11.2-12.66-14.46-4.47-8.94-4.17-17.82-4.01-22.25.07-1.89.14-1.29.52-5.85.25-3.08.73-9.5.89-27.89.03-2.89.05-6.85.05-11.59,1.06.8,3.39,2.33,6.74,2.73,5.92.7,10.2-2.7,10.9-3.28,1.81,2.78,5.24,4.21,8.51,3.61,4.29-.79,5.88-4.67,5.96-4.87Z"/>
    <path class="cls-4" d="m42.28,35.35c.39,8.87-.17,17.6-1.2,26.4-.47,4.03-.61,7.97-.13,12.01.45,3.8.85,7.91,2.85,11.26,3.98,6.65,14.04,5.52,19.39,1.28,3.99-3.16,4.66-8.82,5.11-13.54.81-8.43.88-16.95,1.18-25.41.09-2.65.22-5.3.25-7.95s-.12-5.35.29-7.99,1.54-5.41,3.01-7.76c1.91-3.05,4.66-5.49,8.06-6.76s7.59-1.8,10.93.02c4.85,2.63,6.95,8.67,8.18,13.7,1.37,5.61,1.87,11.43,2.04,17.19.09,3.11.03,6.08-.35,9.17-.82,6.62-1.81,13.22-2.76,19.82-1.15,7.98-1.81,16.06-5.46,23.37-3.35,6.69-8.45,12.46-14.99,16.17-7.63,4.32-16.57,4.74-25.1,5.46-8.3.7-17.18,1.59-24.94-2.13-6.62-3.17-11.19-8.76-14.4-15.22-3.54-7.12-4.53-15.16-4.01-23.03.23-3.51.66-7.01.84-10.53.35-6.97.45-13.96.52-20.94.04-4.35.06-8.7.06-13.05l-1.3.45c5.62,4.2,13.46,3.59,18.8-.77l-1.26.14c3.85,5.61,13.22,5,15.82-1.51.28-.7-1.16-.58-1.36-.08-.68,1.7-2.09,3.23-3.75,3.99-3.39,1.56-7.34-.04-9.36-2.98-.27-.39-1-.07-1.26.14-4.76,3.89-11.57,4-16.48.33-.29-.22-1.3,0-1.3.45,0,12.96.13,26.02-.9,38.95-.44,5.48-.94,10.81-.24,16.32.95,7.42,4,14.86,8.85,20.61,5.26,6.24,12.63,9.69,20.71,10.27,4.33.31,8.69,0,13.01-.36,4.65-.38,9.33-.7,13.95-1.41,8.23-1.27,15.72-4.51,21.7-10.41,4.46-4.4,7.93-10,9.95-15.93,1.4-4.12,1.92-8.47,2.53-12.76.67-4.62,1.33-9.23,1.99-13.85.7-4.93,1.52-9.87,1.95-14.84.32-3.77,0-7.72-.28-11.48-.45-6.02-1.3-12.25-3.68-17.85s-6.33-9.65-12.62-9.5c-6.8.16-12.91,3.96-16.14,9.92-1.37,2.53-2.32,5.26-2.57,8.13-.2,2.25-.1,4.52-.13,6.78-.04,3.2-.19,6.41-.31,9.61-.31,8.58-.26,17.3-1.35,25.83-.34,2.68-.82,5.49-2.1,7.9-1.48,2.78-4.2,4.44-7.18,5.27-3.97,1.11-8.74.68-11.45-2.75s-2.98-7.93-3.45-11.93c-.99-8.3.9-16.51,1.3-24.79.22-4.6.21-9.21.01-13.81-.02-.54-1.48-.23-1.45.39Z"/>
  </g>
  <ellipse class="cls-2" cx="49.03" cy="22.93" rx="2.81" ry="2.6"/>
  <ellipse class="cls-1" cx="76.11" cy="104.96" rx="3.97" ry="3.67"/>
  <ellipse class="cls-1" cx="21.37" cy="98.8" rx="1.97" ry="1.91" transform="translate(-33.88 14.15) rotate(-20.93)"/>
  <ellipse class="cls-1" cx="92.91" cy="32.39" rx="1.97" ry="1.91"/>
  <ellipse class="cls-1" cx="19.78" cy="10.5" rx="1.97" ry="1.91"/>
  <ellipse class="cls-1" cx="15.66" cy="102.24" rx="1.59" ry="1.54"/>
  <ellipse class="cls-2" cx="45.03" cy="30.48" rx="1.59" ry="1.54"/>
  <ellipse class="cls-2" cx="5.98" cy="28.56" rx="1.13" ry="1.09"/>
  <ellipse class="cls-2" cx="49.76" cy="31.84" rx="1.13" ry="1.09"/>
  <ellipse class="cls-2" cx="1.38" cy="30.75" rx="1.13" ry="1.09"/>
  <ellipse class="cls-2" cx="3.63" cy="24.47" rx="1.59" ry="1.54"/>
  <ellipse class="cls-1" cx="17.81" cy="16.7" rx="1.59" ry="1.54"/>
  <ellipse class="cls-1" cx="26.07" cy="8.59" rx="1.19" ry="1.15"/>
</svg>