<?xml version="1.0" encoding="UTF-8"?>
<svg id="_Слой_1" data-name="Слой 1" xmlns="http://www.w3.org/2000/svg" viewBox="0 0 116.31 124.85">
  <defs>
    <style>
      .cls-1, .cls-2, .cls-3 {
        fill: #f6a43c;
      }

      .cls-1, .cls-3, .cls-4, .cls-5, .cls-6 {
        stroke-miterlimit: 10;
      }

      .cls-1, .cls-3, .cls-4, .cls-6 {
        stroke: #973f1c;
      }

      .cls-1, .cls-5, .cls-6 {
        stroke-width: .5px;
      }

      .cls-2, .cls-7 {
        stroke-width: 0px;
      }

      .cls-4 {
        fill: #512d21;
        stroke-width: .75px;
      }

      .cls-5 {
        fill: #f6a53d;
        stroke: #775a14;
      }

      .cls-6 {
        fill: #502d21;
      }

      .cls-7 {
        fill: #973f1c;
      }
    </style>
  </defs>
  <g>
    <path class="cls-2" d="m31.85,9.46c-1.34-2.09-2.45-3.74-4.63-5.33-.57-.41-3.14-2.23-7.26-3.14-2.18-.48-7.51-1.65-12.25.76C3.93,3.68,2.46,6.89,1.67,8.6c-3.24,7.07.36,14.41,3.17,20.32,1.04,2.2,2.08,3.94,2.81,5.1,3.13,1.32,6.73.86,8.88-1.03,2.04-1.8,1.97-4.19,1.95-4.67,4.49,2.12,9.88,2.09,14.09-.14,4.54-2.41,5.84-6.39,6.11-7.29-2.56-4.59-4.91-8.42-6.83-11.42Z"/>
    <path class="cls-7" d="m32.22,9.28c-1.39-2.17-2.9-4.18-5.05-5.64-1.97-1.34-4.24-2.26-6.54-2.82C15.65-.4,10.05-.58,5.73,2.62S-.51,11.63.11,16.79c.41,3.38,1.7,6.6,3.11,9.67.6,1.31,1.21,2.62,1.86,3.9.38.73.77,1.46,1.18,2.17.27.46.6,1.29,1.01,1.66.91.81,3.05.89,4.2.87,1.42-.03,2.85-.36,4.1-1.04,2.09-1.15,3.42-3.34,3.31-5.74l-.65.31c6.25,2.85,14.49,1.9,18.83-3.81.67-.88,1.24-1.86,1.66-2.89.47-1.15.28-1.3-.39-2.47-1.95-3.44-3.99-6.82-6.12-10.14-.2-.32-.99,0-.75.36,1.71,2.67,3.36,5.38,4.95,8.12.47.81.92,1.64,1.4,2.45.37.63.4.56.29,1.14-.16.82-.75,1.72-1.19,2.41-3.88,6.03-12.04,7.09-18.21,4.27-.19-.09-.66.04-.65.31.1,2.26-1.11,4.35-3.16,5.35-1.24.6-2.65.83-4.02.75-.73-.05-1.55-.16-2.23-.42s-.9-.62-1.26-1.23c-1.47-2.46-2.7-5.06-3.85-7.68s-2.08-5.16-2.51-7.9C.28,12.37,1.8,6.9,5.56,3.59,9.51.11,14.98.19,19.82,1.29c2.35.54,4.65,1.43,6.66,2.78,2.14,1.44,3.62,3.43,4.99,5.57.2.32.99,0,.75-.36Z"/>
  </g>
  <path class="cls-3" d="m114.18,15.88c-1.33-4.49-2.54-8.55-6.37-11.04-5.46-3.56-13.3-2.13-18.02,1.33-3.37,2.47-4.76,5.7-6.8,10.46-2.72,6.32-1.55,7.59-4.05,13.25-2.02,4.58-4.33,9.82-9.77,11.99-3.87,1.54-8.5,1.28-12-.44-3.86-1.9-6.4-5.58-9.65-10.29-2.56-3.71-3.55-6.02-4.86-5.84-1.89.27-1.17,5.3-5.03,8.05-1.97,1.41-4.21,1.56-5.77,1.67-3.64.25-6.45-.92-7.77-1.57,0,.68-.12,2.56-1.51,4.26-1.66,2.02-4.01,2.41-4.65,2.51-3.86.58-5.88-2.09-6.95-1.25-1.41,1.1,1.44,6.2,4.76,14.91.21.54.76,2,1.66,3.88.5,1.03,1.14,2.36,2.09,3.86,0,0,1.65,2.61,3.92,4.93,3.35,3.42,14.98,10.99,28.29,8.53,7.39-1.36,11.16-5.04,11.95-4.07,1.08,1.33-4.25,10.87-13.1,13.32-9.29,2.58-15.1-4.68-27.92-1.68-4.52,1.06-6.47,2.58-7.17,3.19-5.29,4.52-5.76,12.49-4.53,17.84,0,0,1.32,5.71,5.66,10.26,14.24,14.92,47.32,13.36,67.64-1.7,10.56-7.83,15.01-17.32,20.98-30.08,6.72-14.37,7.93-26.41,10.36-50.49.22-2.2.79-8.4-1.4-15.78Z"/>
  <ellipse class="cls-4" cx="20.49" cy="96.04" rx="3.32" ry="3.24"/>
  <ellipse class="cls-4" cx="27.85" cy="101.32" rx="1.41" ry="1.37"/>
  <ellipse class="cls-4" cx="20.71" cy="105.35" rx="1.86" ry="1.9"/>
  <ellipse class="cls-6" cx="6.53" cy="12.2" rx="1.49" ry="1.6"/>
  <ellipse class="cls-1" cx="6.53" cy="42.22" rx="1.49" ry="1.6"/>
  <ellipse class="cls-1" cx="42.89" cy="15.41" rx="1.49" ry="1.6"/>
  <ellipse class="cls-6" cx="11.36" cy="7.78" rx="1.89" ry="1.98" transform="translate(-2.17 10.34) rotate(-45.09)"/>
  <ellipse class="cls-1" cx="49.03" cy="15.41" rx="1.86" ry="2.01"/>
  <ellipse class="cls-6" cx="5.96" cy="17.02" rx=".92" ry=".95"/>
  <ellipse class="cls-5" cx="5.6" cy="37.61" rx=".92" ry=".95"/>
  <ellipse class="cls-5" cx="46.25" cy="20.93" rx=".92" ry=".95"/>
</svg>